<svg width="160" height="80" viewBox="0 0 160 80" fill="none" xmlns="http://www.w3.org/2000/svg">
  <rect width="160" height="80" rx="16" fill="#36677F"/>
  <path d="M40 54L54 26H66L80 54H69.6L66.8 48H53.2L50.4 54H40ZM56.4 41.6H63.6L60 33.6L56.4 41.6Z" fill="#ffffff" opacity="0.94"/>
  <path d="M86 54V26H100.8C108 26 112.8 30.6 112.8 39.8C112.8 49 108 54 100.8 54H86ZM95.6 46.6H101C103.8 46.6 105.6 44.2 105.6 39.8C105.6 35.4 103.8 33.2 101 33.2H95.6V46.6Z" fill="#8DCFDB"/>
  <circle cx="126" cy="40" r="14" stroke="#3CB1C3" stroke-width="4" fill="none"/>
  <path d="M120 40H132" stroke="#EF517D" stroke-width="4" stroke-linecap="round"/>
</svg>
